<svg width="81" height="80" viewBox="0 0 81 80" fill="none" xmlns="http://www.w3.org/2000/svg">
<circle cx="40.5" cy="40" r="40" fill="white"/>
<path d="M48.8315 41.8795C47.7835 44.003 46.3649 46.1202 44.9115 48.0201C43.4626 49.914 42.0088 51.5536 40.9154 52.7209C40.7701 52.8761 40.6313 53.0226 40.5 53.1601C40.3687 53.0226 40.2299 52.8761 40.0846 52.7209C38.9912 51.5536 37.5374 49.914 36.0885 48.0201C34.6351 46.1202 33.2165 44.003 32.1685 41.8795C31.1096 39.7342 30.5 37.7238 30.5 36C30.5 30.4772 34.9772 26 40.5 26C46.0228 26 50.5 30.4772 50.5 36C50.5 37.7238 49.8904 39.7342 48.8315 41.8795ZM40.5 56C40.5 56 52.5 44.6274 52.5 36C52.5 29.3726 47.1274 24 40.5 24C33.8726 24 28.5 29.3726 28.5 36C28.5 44.6274 40.5 56 40.5 56Z" fill="#0072BB"/>
<path d="M40.5 40C38.2909 40 36.5 38.2091 36.5 36C36.5 33.7909 38.2909 32 40.5 32C42.7091 32 44.5 33.7909 44.5 36C44.5 38.2091 42.7091 40 40.5 40ZM40.5 42C43.8137 42 46.5 39.3137 46.5 36C46.5 32.6863 43.8137 30 40.5 30C37.1863 30 34.5 32.6863 34.5 36C34.5 39.3137 37.1863 42 40.5 42Z" fill="#0072BB"/>
</svg>
