<svg width="80" height="80" viewBox="0 0 80 80" fill="none" xmlns="http://www.w3.org/2000/svg">
<circle cx="40" cy="40" r="40" fill="white"/>
<path fill-rule="evenodd" clip-rule="evenodd" d="M36.5651 25.395C34.6764 25.8374 32.925 26.6368 31.3861 27.7181C31.6018 27.6384 31.7331 27.5999 31.7331 27.5999C33.529 26.6022 35.1323 25.8871 36.5651 25.395ZM27.6055 31.5487C25.9614 33.9552 25 36.8651 25 39.9995C25 48.2835 31.7155 54.999 39.9995 54.999C48.2835 54.999 54.999 48.2835 54.999 39.9995C54.999 34.4845 52.0227 29.6648 47.5886 27.0588C47.7909 27.8702 46.0933 28.6006 44.1899 29.4196C42.6134 30.0979 40.8956 30.837 39.9995 31.7331C39.595 32.1377 39.5072 32.859 39.4261 33.525C39.3002 34.5602 39.1904 35.4618 37.9329 34.833C37.7064 34.6065 37.5295 34.38 37.3697 34.1752C36.8003 33.446 36.4466 32.993 34.833 33.7997C32.7664 34.833 37.0126 38.6595 37.9329 38.9662C38.3222 39.096 38.6305 38.8289 38.9863 38.5208C39.4715 38.1005 40.045 37.6037 41.0328 37.9329C44.1327 38.9662 48.5512 40.5314 48.2659 43.0994C47.8493 46.8491 43.0994 52.3991 39.9995 53.4324C38.7056 53.4324 39.1009 51.9903 39.5443 50.3733C39.8455 49.2747 40.1688 48.0953 39.9995 47.2326C39.7548 45.9855 38.5353 45.5894 37.3423 45.2019C36.1098 44.8016 34.9054 44.4104 34.833 43.0994C34.774 42.0309 35.5406 41.3012 36.399 40.4841C36.5642 40.3268 36.7328 40.1663 36.8996 39.9995C37.0021 39.897 36.3564 39.5427 35.3631 38.9978C32.7159 37.5454 27.5999 34.7386 27.5999 31.7331C27.5999 31.6709 27.6018 31.6094 27.6055 31.5487ZM39.9995 24C31.1632 24 24 31.1632 24 39.9995C24 48.8358 31.1632 55.999 39.9995 55.999C48.8358 55.999 55.999 48.8358 55.999 39.9995C55.999 31.1632 48.8358 24 39.9995 24Z" fill="#0072BB"/>
</svg>
